<svg xmlns="http://www.w3.org/2000/svg" xmlns:xlink="http://www.w3.org/1999/xlink" width="500" zoomAndPan="magnify" viewBox="0 0 375 374.999991" height="500" preserveAspectRatio="xMidYMid meet" version="1.2"><defs/><g id="3432f76965"><g style="fill:#eaeaea;fill-opacity:1;"><g transform="translate(10.460233, 201.270414)"><path style="stroke:none" d="M 60.671875 -7.296875 L 73.96875 -41.515625 L 82.140625 -41.515625 L 66.015625 0 L 55.34375 0 L 42.890625 -31.140625 L 30.84375 0 L 20.109375 0 L 3.5625 -41.515625 L 11.796875 -41.515625 L 25.4375 -7.296875 L 38.734375 -41.515625 L 46.96875 -41.515625 Z M 60.671875 -7.296875 "/></g></g><g style="fill:#eaeaea;fill-opacity:1;"><g transform="translate(96.235168, 201.270414)"><path style="stroke:none" d="M 18.390625 -41.515625 L 26.03125 -41.515625 L 26.03125 0 L 18.390625 0 L 18.390625 -18.859375 L 11.203125 -18.859375 L 11.203125 0 L 3.5625 0 L 3.5625 -41.515625 L 11.203125 -41.515625 L 11.203125 -26.515625 L 18.390625 -26.515625 Z M 18.390625 -41.515625 "/></g><g transform="translate(125.835232, 201.270414)"><path style="stroke:none" d="M 36.234375 -41.515625 C 40.828125 -41.515625 45.097656 -40.976562 49.046875 -39.90625 C 53.003906 -38.84375 56.472656 -37.375 59.453125 -35.5 C 62.441406 -33.625 64.765625 -31.429688 66.421875 -28.921875 C 68.085938 -26.410156 68.921875 -23.691406 68.921875 -20.765625 C 68.921875 -17.835938 68.085938 -15.117188 66.421875 -12.609375 C 64.765625 -10.097656 62.441406 -7.898438 59.453125 -6.015625 C 56.472656 -4.140625 53.003906 -2.664062 49.046875 -1.59375 C 45.097656 -0.53125 40.828125 0 36.234375 0 C 31.648438 0 27.378906 -0.53125 23.421875 -1.59375 C 19.472656 -2.664062 16.003906 -4.140625 13.015625 -6.015625 C 10.035156 -7.898438 7.710938 -10.097656 6.046875 -12.609375 C 4.390625 -15.117188 3.5625 -17.835938 3.5625 -20.765625 C 3.5625 -23.691406 4.390625 -26.410156 6.046875 -28.921875 C 7.710938 -31.429688 10.035156 -33.625 13.015625 -35.5 C 16.003906 -37.375 19.472656 -38.84375 23.421875 -39.90625 C 27.378906 -40.976562 31.648438 -41.515625 36.234375 -41.515625 Z M 36.234375 -7.125 C 39.203125 -7.125 42.160156 -7.46875 45.109375 -8.15625 C 48.054688 -8.84375 50.753906 -9.8125 53.203125 -11.0625 C 55.648438 -12.3125 57.601562 -13.753906 59.0625 -15.390625 C 60.53125 -17.035156 61.265625 -18.828125 61.265625 -20.765625 C 61.265625 -22.703125 60.53125 -24.488281 59.0625 -26.125 C 57.601562 -27.769531 55.648438 -29.210938 53.203125 -30.453125 C 50.753906 -31.703125 48.054688 -32.671875 45.109375 -33.359375 C 42.160156 -34.054688 39.203125 -34.40625 36.234375 -34.40625 C 33.273438 -34.40625 30.320312 -34.054688 27.375 -33.359375 C 24.425781 -32.671875 21.722656 -31.703125 19.265625 -30.453125 C 16.816406 -29.210938 14.859375 -27.769531 13.390625 -26.125 C 11.929688 -24.488281 11.203125 -22.703125 11.203125 -20.765625 C 11.203125 -18.828125 11.929688 -17.035156 13.390625 -15.390625 C 14.859375 -13.753906 16.816406 -12.3125 19.265625 -11.0625 C 21.722656 -9.8125 24.425781 -8.84375 27.375 -8.15625 C 30.320312 -7.46875 33.273438 -7.125 36.234375 -7.125 Z M 36.234375 -7.125 "/></g></g><g style="fill:#eaeaea;fill-opacity:1;"><g transform="translate(198.322757, 201.270414)"><path style="stroke:none" d="M 36.234375 -41.515625 C 40.828125 -41.515625 45.097656 -40.976562 49.046875 -39.90625 C 53.003906 -38.84375 56.472656 -37.375 59.453125 -35.5 C 62.441406 -33.625 64.765625 -31.429688 66.421875 -28.921875 C 68.085938 -26.410156 68.921875 -23.691406 68.921875 -20.765625 C 68.921875 -17.835938 68.085938 -15.117188 66.421875 -12.609375 C 64.765625 -10.097656 62.441406 -7.898438 59.453125 -6.015625 C 56.472656 -4.140625 53.003906 -2.664062 49.046875 -1.59375 C 45.097656 -0.53125 40.828125 0 36.234375 0 C 31.648438 0 27.378906 -0.53125 23.421875 -1.59375 C 19.472656 -2.664062 16.003906 -4.140625 13.015625 -6.015625 C 10.035156 -7.898438 7.710938 -10.097656 6.046875 -12.609375 C 4.390625 -15.117188 3.5625 -17.835938 3.5625 -20.765625 C 3.5625 -23.691406 4.390625 -26.410156 6.046875 -28.921875 C 7.710938 -31.429688 10.035156 -33.625 13.015625 -35.5 C 16.003906 -37.375 19.472656 -38.84375 23.421875 -39.90625 C 27.378906 -40.976562 31.648438 -41.515625 36.234375 -41.515625 Z M 36.234375 -7.125 C 39.203125 -7.125 42.160156 -7.46875 45.109375 -8.15625 C 48.054688 -8.84375 50.753906 -9.8125 53.203125 -11.0625 C 55.648438 -12.3125 57.601562 -13.753906 59.0625 -15.390625 C 60.53125 -17.035156 61.265625 -18.828125 61.265625 -20.765625 C 61.265625 -22.703125 60.53125 -24.488281 59.0625 -26.125 C 57.601562 -27.769531 55.648438 -29.210938 53.203125 -30.453125 C 50.753906 -31.703125 48.054688 -32.671875 45.109375 -33.359375 C 42.160156 -34.054688 39.203125 -34.40625 36.234375 -34.40625 C 33.273438 -34.40625 30.320312 -34.054688 27.375 -33.359375 C 24.425781 -32.671875 21.722656 -31.703125 19.265625 -30.453125 C 16.816406 -29.210938 14.859375 -27.769531 13.390625 -26.125 C 11.929688 -24.488281 11.203125 -22.703125 11.203125 -20.765625 C 11.203125 -18.828125 11.929688 -17.035156 13.390625 -15.390625 C 14.859375 -13.753906 16.816406 -12.3125 19.265625 -11.0625 C 21.722656 -9.8125 24.425781 -8.84375 27.375 -8.15625 C 30.320312 -7.46875 33.273438 -7.125 36.234375 -7.125 Z M 36.234375 -7.125 "/></g></g><g style="fill:#eaeaea;fill-opacity:1;"><g transform="translate(270.810281, 201.270414)"><path style="stroke:none" d="M 16.546875 -24.671875 C 17.890625 -23.765625 19.265625 -22.71875 20.671875 -21.53125 C 22.078125 -20.34375 23.253906 -18.800781 24.203125 -16.90625 C 25.265625 -14.8125 25.707031 -12.578125 25.53125 -10.203125 C 25.351562 -7.828125 24.613281 -5.769531 23.3125 -4.03125 C 21.375 -1.34375 18.703125 0 15.296875 0 C 14.671875 0 14.039062 -0.0546875 13.40625 -0.171875 C 12.5 -0.335938 11.507812 -0.644531 10.4375 -1.09375 C 9.375 -1.550781 8.335938 -2.28125 7.328125 -3.28125 C 6.316406 -4.289062 5.460938 -5.664062 4.765625 -7.40625 C 4.078125 -9.15625 3.695312 -11.375 3.625 -14.0625 L 11.265625 -14.0625 C 11.347656 -12.125 11.601562 -10.71875 12.03125 -9.84375 C 12.46875 -8.976562 12.929688 -8.414062 13.421875 -8.15625 C 13.921875 -7.894531 14.332031 -7.742188 14.65625 -7.703125 C 15.40625 -7.585938 15.96875 -7.640625 16.34375 -7.859375 C 16.71875 -8.078125 17.003906 -8.304688 17.203125 -8.546875 C 17.597656 -9.097656 17.832031 -9.835938 17.90625 -10.765625 C 17.988281 -11.691406 17.8125 -12.609375 17.375 -13.515625 C 16.863281 -14.546875 16.148438 -15.425781 15.234375 -16.15625 C 14.328125 -16.894531 13.320312 -17.640625 12.21875 -18.390625 C 11.707031 -18.742188 11.171875 -19.117188 10.609375 -19.515625 C 10.054688 -19.910156 9.503906 -20.328125 8.953125 -20.765625 C 6.503906 -22.773438 4.882812 -25.023438 4.09375 -27.515625 C 3.300781 -30.003906 3.398438 -32.515625 4.390625 -35.046875 C 5.140625 -36.910156 6.242188 -38.394531 7.703125 -39.5 C 8.972656 -40.40625 10.488281 -41.023438 12.25 -41.359375 C 14.007812 -41.703125 15.773438 -41.675781 17.546875 -41.28125 C 19.328125 -40.882812 20.851562 -40.054688 22.125 -38.796875 C 24.414062 -36.535156 25.617188 -33.390625 25.734375 -29.359375 L 18.09375 -29.359375 C 18.050781 -30.304688 17.859375 -31.242188 17.515625 -32.171875 C 17.179688 -33.109375 16.503906 -33.691406 15.484375 -33.921875 C 14.734375 -34.117188 13.960938 -34.078125 13.171875 -33.796875 C 12.378906 -33.523438 11.820312 -32.992188 11.5 -32.203125 C 11.382812 -31.960938 11.285156 -31.585938 11.203125 -31.078125 C 11.128906 -30.566406 11.257812 -29.9375 11.59375 -29.1875 C 11.925781 -28.4375 12.664062 -27.601562 13.8125 -26.6875 C 14.25 -26.332031 14.695312 -25.992188 15.15625 -25.671875 C 15.613281 -25.359375 16.078125 -25.023438 16.546875 -24.671875 Z M 16.546875 -24.671875 "/></g></g><g style="fill:#eaeaea;fill-opacity:1;"><g transform="translate(300.11377, 201.270414)"><path style="stroke:none" d="M 53.140625 -26.515625 L 53.140625 -41.515625 L 60.796875 -41.515625 L 60.796875 0 L 53.140625 0 L 53.140625 -18.921875 L 11.203125 -18.921875 L 11.203125 -0.0625 L 3.5625 -0.0625 L 3.5625 -41.515625 L 11.203125 -41.515625 L 11.203125 -26.515625 Z M 53.140625 -26.515625 "/></g></g></g></svg>